<svg xmlns="http://www.w3.org/2000/svg" xmlns:xlink="http://www.w3.org/1999/xlink" viewBox="0 0 842 666">
  <g id="crown" style="isolation: isolate">
    <path d="M574,32c9.85-.23,16.73,2.09,24,4,13.31,3.49,23.9,2.57,36,7a486.82,486.82,0,0,1,55,24c14,7.32,27.81,12.07,41,20,38.55,23.17,65.71,62.28,85,105,7,15.51,8.34,34.8,13,52,1.63,6,.12,10.06,2,16,1,3.21,4.91,5.36,6,8V412c.9,27.41-2.29,56.11-7,80-10.67,6.66-28.51,6.47-43,10-9.86,2.4-15.72-4.44-26-2-6.63,1.58-22.48,4.51-32,2-8-2.12-13.73-10.77-26-8-1.25.28-4.08,2.24-6,2-4.79-.59-9-5.51-16-4-8.41,1.82-23.12,6.8-34,4-27-7-59.16-12.15-84-21l-14-2c-5.75-2.05-14-5.35-20-7l-10-1c-9.78-4.18-23.15-5.53-34-10-2-.81-4.2-4.27-6-5H464c-5.91-1.48-12.93-2.09-20-4-20.72-5.59-46.13-8.17-68-14l-24-3c-2.37-.89-5.6-4.23-8-5-5.3-1.7-11,1.41-14,2-1.38.27-16.74-1.2-20-2-2.88-.71-10.1-.73-14-2-3.27-1.06-6.56-5-10-6H272c-17.48-4.26-37.82-3.52-59-4-14.58-.33-27-3.67-40,2v-2c3.34-5.7,2.9-25.86,5-34,8.71-33.78,7.4-78.05,17-110q1-7,2-14c11.83-33.21,19.43-66.39,36-94,4-6.65,11.45-12.68,16-19,18.28-25.39,53.39-56.53,83-70,14-6.37,30.53-10.22,44-16l10-1c12-3.24,27.66-6.91,40-10h12c21.92-5.42,48.07-7.88,74-8-.5-5-3.85-11.55-1-16C512.93,14,528.53,3.2,536,4c8.47.91,15.93,4.68,27,5,3.42,5,9.13,7.44,10,15C574.14,25.69,574.07,28.9,574,32Z" fill-rule="evenodd"/>
  </g>
  <g id="visor" style="isolation: isolate">
    <path d="M186,410c8.23-.13,16.45.62,22,2,12.51,3.1,29.74-.54,40,2,13.55,3.36,25.05-1.5,38,2,4,1.09,6.56,4.85,10,6,3.82,1.27,11.16,1.29,14,2,3.31.82,18.52,2.27,20,2,3-.55,8.71-3.72,14-2,2.41.78,5.62,4.11,8,5l24,3c21.85,5.88,47.28,8.41,68,14,7.06,1.91,14.09,2.53,20,4h14c35.79,14.69,80.42,25.34,120,36,13.19,3.55,24.41,2.45,38,6,3,.79,7,3.23,10,4,10.74,2.73,25.76-2,34-4,8-2,17.32,1.68,24,3a21.58,21.58,0,0,1,1,7c-6.39,4.28-10.63,11.62-16,17-6.26,6.26-14.12,11.41-20,18-4.52,5.07-7,11.44-12,16-9.88,9-21.8,15.25-32,24-20.38,17.49-41.44,38.25-65,52-14.11,8.23-30.7,13.41-46,20-6.58,2.83-12.29,1.08-20,3-29.71,7.4-76,1-102-8-12.28-4.25-23.7-4.51-36-9-17-6.23-36.88-14.35-53-22-8.18-3.88-17.08-2.46-25-6a714.29,714.29,0,0,0-112-39H148c-13-3.18-39-5.86-52-2-2.37.71-5.35,3.28-8,4-11.93,3.25-25.53.93-36,5-3.79,1.47-18,7.35-21,10-7.66,6.84-3,8.94-19,9-1-.8-.27-.35-2-1-1.71-2.73-2.54-2.5-3-7-.83-1.66-.24-2.59,0-6,7.1-4.79,12-13,18-19s13.47-10.19,20-16c1-.86,1.06-3.07,2-4,4.36-4.32,9.66-7.66,14-12,2.29-2.29,3.62-5.82,6-8,2.88-2.63,7.06-3.39,10-6,2.39-2.13,3.72-5.72,6-8,9.67-9.67,20.33-18.33,30-28,5-4.95,8.84-11.28,14-16,2.88-2.63,7.06-3.39,10-6,3.09-2.76,5.06-7.06,8-10s7.24-4.91,10-8c7.63-8.57,13.28-18.61,21-27C180.17,412.07,183.69,411.75,186,410Z" fill-rule="evenodd"/>
  </g>
  <g id="shadow_copy_Image" data-name="shadow copy Image">
    <image id="shadow_copy_Image-2" data-name="shadow copy Image" width="842" height="666" xlink:href="cap_exercise1.png"/>
  </g>
</svg>
